<?xml version="1.0" encoding="utf-8"?>
<!-- Generator: Adobe Illustrator 17.0.0, SVG Export Plug-In . SVG Version: 6.00 Build 0)  -->
<!DOCTYPE svg PUBLIC "-//W3C//DTD SVG 1.1//EN" "http://www.w3.org/Graphics/SVG/1.1/DTD/svg11.dtd">
<svg version="1.1" id="Capa_1" xmlns="http://www.w3.org/2000/svg" xmlns:xlink="http://www.w3.org/1999/xlink" x="0px" y="0px"
	 width="85.04px" height="85.04px" viewBox="0 0 85.04 85.04" enable-background="new 0 0 85.04 85.04" xml:space="preserve">
<ellipse fill="#00A19A" stroke="#FFFFFF" stroke-width="4" stroke-miterlimit="10" cx="42.833" cy="43.333" rx="38.167" ry="38.333"/>
<g>
	<path fill="#EDEDED" d="M61.512,35.391c0,4.485-2.814,7.772-8.443,9.861c-4.229,1.549-6.525,3.116-6.889,4.701
		c-0.084,0.415-0.154,0.828-0.21,1.243c-0.196,0.378-0.7,0.567-1.512,0.567c-2.829,0-4.859,0.108-6.091,0.324
		c-0.252,0.054-0.448,0.081-0.588,0.081c-1.008,0-1.512-0.883-1.512-2.648c0-1.53,1.379-3.426,4.138-5.687
		c2.758-2.26,4.137-4.156,4.137-5.687c0-2.323-1.918-3.485-5.755-3.485c-2.436,0-5.601,0.612-9.493,1.837
		c-1.204,0-1.806-2.297-1.806-6.889c0-0.504,0.042-0.882,0.126-1.135c0.392-1.206,2.73-2.143,7.015-2.81
		c3.108-0.486,6.104-0.729,8.989-0.729c5.068,0,9.268,0.91,12.601,2.729C59.747,29.592,61.512,32.167,61.512,35.391z M50.129,58.625
		c0,1.387-0.75,2.585-2.247,3.593c-1.498,1.008-3.325,1.513-5.481,1.513c-2.157,0-3.984-0.505-5.482-1.513
		c-1.498-1.008-2.247-2.206-2.247-3.593c0-1.387,0.749-2.57,2.247-3.552c1.498-0.982,3.325-1.472,5.482-1.472
		c2.156,0,3.983,0.491,5.481,1.472C49.379,56.054,50.129,57.238,50.129,58.625z"/>
</g>
</svg>
