<?xml version="1.0" encoding="utf-8"?>
<!-- Generator: Adobe Illustrator 17.0.0, SVG Export Plug-In . SVG Version: 6.00 Build 0)  -->
<!DOCTYPE svg PUBLIC "-//W3C//DTD SVG 1.1//EN" "http://www.w3.org/Graphics/SVG/1.1/DTD/svg11.dtd">
<svg version="1.1" xmlns="http://www.w3.org/2000/svg" xmlns:xlink="http://www.w3.org/1999/xlink" x="0px" y="0px"
	 width="666.142px" height="212.598px" viewBox="0 0 666.142 212.598" enable-background="new 0 0 666.142 212.598"
	 xml:space="preserve">
<g id="Capa_1">
	<path fill="#F6F6F6" stroke="#009688" stroke-width="9" stroke-miterlimit="10" d="M193.385,98.348
		c0.887,50.81-39.584,92-90.394,92c-7.19,0-14.215-0.83-20.952-2.39l-42.317,15.64l-0.672-38.5l-0.872-1.02
		c-19.295-18.886-28.332-39.31-28.794-65.73c-0.887-50.81,39.584-92,90.394-92S192.498,47.538,193.385,98.348z"/>
	<g>
		<path fill="#009688" d="M146.255,77.429c0,12.359-6.948,21.418-20.844,27.176c-10.44,4.27-16.11,8.588-17.007,12.955
			c-0.208,1.143-0.381,2.283-0.519,3.425c-0.484,1.042-1.729,1.564-3.733,1.564c-6.983,0-11.995,0.298-15.037,0.894
			c-0.622,0.148-1.106,0.224-1.452,0.224c-2.489,0-3.733-2.432-3.733-7.297c0-4.218,3.404-9.442,10.215-15.673
			c6.809-6.229,10.214-11.453,10.214-15.672c0-6.403-4.736-9.604-14.207-9.604c-6.015,0-13.828,1.688-23.437,5.063
			c-2.973,0-4.459-6.329-4.459-18.986c0-1.389,0.104-2.431,0.311-3.127c0.967-3.325,6.741-5.906,17.318-7.743
			c7.674-1.34,15.071-2.01,22.192-2.01c12.512,0,22.882,2.507,31.11,7.52C141.9,61.447,146.255,68.545,146.255,77.429z
			 M118.152,141.46c0,3.823-1.851,7.124-5.548,9.903c-3.699,2.778-8.21,4.169-13.533,4.169c-5.325,0-9.835-1.391-13.533-4.169
			c-3.699-2.779-5.548-6.08-5.548-9.903c0-3.821,1.849-7.084,5.548-9.79c3.698-2.705,8.208-4.058,13.533-4.058
			c5.323,0,9.833,1.353,13.533,4.058C116.302,134.376,118.152,137.639,118.152,141.46z"/>
	</g>
	<g>
		<path fill="#81C9C3" d="M367.486,175.254c0,0.713-0.123,2.024-0.368,3.932c-0.26,2.074-0.49,3.31-0.692,3.708
			c-0.173,0.315-0.411,0.473-0.714,0.473c-0.13,0-0.346-0.025-0.649-0.075c-1.053-0.166-4.125-0.249-9.217-0.249
			c-1.111,0-2.762-0.008-4.955-0.025c-2.192-0.017-3.837-0.025-4.933-0.025c-0.476,0-0.714-0.241-0.714-0.722
			c0-1.858,0.09-4.649,0.27-8.373c0.18-3.724,0.27-6.515,0.27-8.373c0-1.891-0.087-5.416-0.26-10.576
			c-0.043-1.327-0.123-3.31-0.238-5.947l-0.022-0.348c-0.029-0.382,0.151-0.572,0.541-0.572c1.067,0,2.672,0.033,4.814,0.1
			c2.142,0.066,3.747,0.1,4.814,0.1c1.053,0,2.64-0.033,4.76-0.1c2.12-0.066,3.707-0.1,4.76-0.1c0.75,0,1.183,0.323,1.298,0.97
			c0.072,0.382,0.184,1.539,0.335,3.471c0.151,1.933,0.227,3.106,0.227,3.521c0,0.348-0.144,0.523-0.433,0.523
			c-0.087,0-0.238-0.008-0.454-0.025c-3.837-0.365-7.284-0.547-10.342-0.547c-0.764,0-1.233,0.207-1.406,0.622
			c-0.072,0.199-0.108,0.838-0.108,1.916c0,1.128,0.144,1.875,0.433,2.24c0.245,0.315,0.714,0.473,1.406,0.473
			c0.144,0,0.426-0.012,0.844-0.037c0.418-0.025,0.764-0.037,1.039-0.037c1.817,0,3.656-0.058,5.517-0.174
			c0.159-0.017,0.555-0.058,1.19-0.124c0.49-0.066,0.88-0.1,1.168-0.1c0.346,0,0.519,0.191,0.519,0.572
			c0-0.348-0.13,0.921-0.389,3.807c-0.115,1.327-0.173,2.654-0.173,3.981c0,0.332-0.209,0.498-0.627,0.498l-1.947-0.249
			c-0.822-0.1-2.697-0.149-5.625-0.149h-2.293c-0.591,0-0.938,0.166-1.039,0.498c-0.014,0.083-0.022,0.597-0.022,1.543
			c0,1.261,0.072,2.074,0.216,2.439c0.245,0.63,1.168,1.004,2.769,1.12c-0.029,0,1.024,0,3.159,0c0.764,0,1.9-0.079,3.408-0.236
			c1.507-0.158,2.636-0.236,3.386-0.236C367.328,174.358,367.486,174.657,367.486,175.254z"/>
		<path fill="#81C9C3" d="M378.305,168.013c0,4.529,0.014,8.004,0.043,10.426c0,0.382,0.022,1.037,0.065,1.966
			c0.043,0.846,0.065,1.501,0.065,1.966c0,0.348-0.18,0.556-0.541,0.622c-0.649,0.133-1.817,0.199-3.505,0.199
			c-1.731,0-2.834-0.066-3.31-0.199c-0.317-0.083-0.498-0.307-0.541-0.672c0-0.05,0-0.406,0-1.07c0-1.476,0.014-3.687,0.043-6.632
			c0.029-2.945,0.043-5.147,0.043-6.607c0-6.967,0.007-10.144,0.022-9.53c-0.043-3.666-0.224-6.826-0.541-9.481
			c-0.029-0.182-0.043-0.323-0.043-0.423c0-0.365,0.188-0.547,0.563-0.547h7.724c0.361,0,0.526,0.174,0.498,0.523l-0.022,0.448
			C378.493,156.168,378.305,162.505,378.305,168.013z"/>
		<path fill="#81C9C3" d="M425.753,182.222c0,0.514-0.209,0.771-0.627,0.771h-7.659c-0.418,0-0.627-0.29-0.627-0.871
			c0-1.675,0.054-4.189,0.162-7.54c0.108-3.351,0.162-5.864,0.162-7.54c0-0.481-0.065-0.738-0.195-0.771
			c-0.159,0.1-1.125,2.663-2.899,7.689c-1.039,2.953-2.077,5.897-3.116,8.834c-0.144,0.382-0.325,0.606-0.541,0.672
			c-0.072,0.017-0.361,0.025-0.865,0.025c-0.75,0-1.197-0.166-1.341-0.498c-0.779-1.825-1.803-4.479-3.072-7.963
			c-1.356-3.683-2.373-6.345-3.051-7.988c-0.029-0.083-0.094-0.174-0.195-0.274c-0.101,0.149-0.151,0.39-0.151,0.722
			c0,1.626,0.036,4.064,0.108,7.316c0.072,3.251,0.108,5.69,0.108,7.316c0,0.581-0.202,0.871-0.606,0.871h-7.226
			c-0.288,0-0.465-0.054-0.53-0.162c-0.065-0.108-0.097-0.294-0.097-0.56c0-1.808,0.076-4.525,0.227-8.149s0.227-6.341,0.227-8.149
			c0-1.924-0.072-5.532-0.216-10.824c-0.014-1.377-0.079-3.426-0.195-6.146l-0.022-0.423c-0.014-0.332,0.288-0.498,0.909-0.498
			c0.793,0,1.983-0.029,3.57-0.087c1.587-0.058,2.777-0.087,3.57-0.087c0.159,0,0.382,0.348,0.671,1.045l6.318,15.95
			c0.447,1.078,0.822,1.617,1.125,1.617c0.159,0,0.498-0.622,1.017-1.866c1.457-3.484,3.613-8.734,6.469-15.751
			c0.245-0.647,0.512-0.97,0.801-0.97c0.418,0,1.049,0.025,1.893,0.075c0.844,0.05,1.482,0.075,1.915,0.075
			c0.361,0,0.912-0.041,1.655-0.124c0.743-0.083,1.295-0.124,1.655-0.124c0.433,0,0.649,0.199,0.649,0.597
			c0,1.958-0.061,4.881-0.184,8.772c-0.123,3.89-0.184,6.814-0.184,8.772c0,1.808,0.065,4.521,0.195,8.137
			C425.688,177.726,425.753,180.43,425.753,182.222z"/>
		<path fill="#81C9C3" d="M449.466,169.481c0,1.676-0.469,2.629-1.406,2.862c-0.159,0.033-1.652,0.216-4.479,0.547
			c-1.702,0.216-4.241,0.473-7.616,0.771c0.202,1.078,0.815,1.899,1.839,2.464c0.837,0.464,1.789,0.697,2.856,0.697
			c1.284,0,2.575-0.398,3.873-1.194c0.548-0.398,1.096-0.796,1.644-1.194c0.303,0.166,0.811,1.012,1.525,2.538
			s1.071,2.497,1.071,2.911c0,0.116-0.108,0.307-0.325,0.572c-1.76,2.173-4.493,3.26-8.2,3.26c-3.433,0-6.202-1.153-8.308-3.459
			c-2.164-2.339-3.245-5.466-3.245-9.381c0-3.816,0.966-6.943,2.899-9.381c1.99-2.522,4.63-3.782,7.919-3.782
			c2.769,0,5.12,1.161,7.053,3.484S449.466,166.279,449.466,169.481z M441.893,167.963c0-1.029-0.317-1.933-0.952-2.712
			c-0.635-0.78-1.392-1.17-2.272-1.17c-0.909,0-1.659,0.44-2.25,1.319c-0.548,0.813-0.822,1.767-0.822,2.862
			c0,0.448,0.202,0.672,0.606,0.672c1.067,0,2.726-0.191,4.976-0.572C441.655,168.278,441.893,168.146,441.893,167.963z"/>
		<path fill="#81C9C3" d="M459.892,177.743c0,3.434-0.512,6.014-1.536,7.739c-1.139,1.908-3.108,3.202-5.907,3.882
			c-0.837,0.199-1.738,0.299-2.704,0.299c-0.577,0-0.865-1.435-0.865-4.305c0-1.443,0.188-2.231,0.563-2.364
			c1.139-0.398,1.861-0.788,2.164-1.17c0.361-0.464,0.57-1.385,0.627-2.762c0.043-0.896,0.065-3.185,0.065-6.868
			c0-4.38-0.26-8.353-0.779-11.919c-0.014-0.149-0.022-0.265-0.022-0.348c0-0.415,0.202-0.622,0.606-0.622
			c1.442,0,2.56-0.05,3.354-0.149c2.308-0.299,3.57-0.448,3.786-0.448c0.303,0,0.476,0.216,0.519,0.647
			c0.087,0.796,0.13,4.039,0.13,9.73V177.743z M460.065,152.834c0,2.787-1.428,4.18-4.284,4.18c-1.226,0-2.221-0.34-2.986-1.02
			c-0.851-0.747-1.277-1.8-1.277-3.16c0-1.277,0.44-2.322,1.32-3.135c0.822-0.73,1.803-1.095,2.942-1.095s2.12,0.365,2.942,1.095
			C459.618,150.495,460.065,151.54,460.065,152.834z"/>
		<path fill="#81C9C3" d="M484.164,170.75c0,3.782-1.006,6.851-3.018,9.207c-2.012,2.356-4.655,3.533-7.93,3.533
			c-3.173,0-5.784-1.161-7.832-3.484c-2.048-2.322-3.072-5.309-3.072-8.958c0-3.849,0.981-6.972,2.943-9.369
			c1.962-2.397,4.616-3.596,7.962-3.596c3.26,0,5.899,1.174,7.919,3.521S484.164,167.001,484.164,170.75z M477.067,170.75
			c0-1.311-0.353-2.468-1.06-3.471c-0.707-1.004-1.623-1.505-2.748-1.505c-1.139,0-2.077,0.514-2.813,1.543
			c-0.692,0.962-1.039,2.107-1.039,3.434c0,1.344,0.346,2.497,1.039,3.459c0.736,1.029,1.673,1.543,2.813,1.543
			c1.125,0,2.055-0.514,2.791-1.543C476.728,173.247,477.067,172.094,477.067,170.75z"/>
		<path fill="#81C9C3" d="M500.696,167.49c0,0.647-0.31,0.97-0.93,0.97c-0.274,0-0.673-0.021-1.2-0.062
			c-0.526-0.041-0.921-0.062-1.18-0.062c-1.197,0-2.012,0.216-2.445,0.647c-0.433,0.431-0.649,1.302-0.649,2.613
			c0,0.713,0.012,1.796,0.034,3.247c0.022,1.452,0.031,2.534,0.031,3.247c0,0.481,0.029,1.199,0.087,2.152
			c0.058,0.954,0.087,1.663,0.087,2.128c0,0.398-0.238,0.622-0.714,0.672c-0.692,0.066-1.753,0.1-3.18,0.1
			c-1.37,0-2.466-0.05-3.289-0.149c-0.476-0.066-0.714-0.34-0.714-0.821c0-1.327,0.007-3.314,0.022-5.96
			c0.014-2.646,0.022-4.633,0.022-5.96c0-3.898-0.31-7.108-0.93-9.63c-0.029-0.149-0.043-0.274-0.043-0.373
			c0-0.249,0.108-0.415,0.325-0.498c0.793-0.1,1.954-0.282,3.483-0.547c2.279-0.514,3.455-0.771,3.527-0.771
			c0.26,0,0.426,0.523,0.498,1.568c0.072,1.045,0.202,1.568,0.389,1.568c-0.202,0,0.389-0.435,1.774-1.306
			c1.385-0.871,2.719-1.306,4.003-1.306c0.808,0,1.212,0.199,1.212,0.597c0,0.481-0.043,1.161-0.13,2.04
			c-0.087,0.946-0.137,1.626-0.151,2.04c0,0.481,0.007,1.12,0.022,1.916C500.682,166.528,500.696,167.175,500.696,167.49z"/>
		<path fill="#81C9C3" d="M540.377,161.394c0,4.015-0.916,7.266-2.748,9.754c-1.962,2.638-4.666,3.957-8.113,3.957
			c-0.577,0-1.446-0.037-2.607-0.112s-2.03-0.112-2.607-0.112c-0.62,0-0.93,0.307-0.93,0.921c0,0.763,0.065,1.899,0.195,3.409
			s0.195,2.638,0.195,3.384c0,0.382-0.151,0.572-0.454,0.572c-0.88,0-2.2-0.029-3.959-0.087c-1.76-0.058-3.08-0.087-3.959-0.087
			c-0.418,0-0.627-0.241-0.627-0.722c0-1.841,0.025-4.608,0.076-8.299s0.076-6.457,0.076-8.299c0-5.209-0.195-10.683-0.584-16.423
			l-0.022-0.348c-0.029-0.315,0.188-0.506,0.649-0.572c1.125-0.166,3.606-0.249,7.443-0.249c2.265,0,4.435,0.033,6.512,0.1
			c3.418,0.116,6.173,1.352,8.265,3.708C539.31,154.31,540.377,157.479,540.377,161.394z M531.745,161.792
			c0-3.865-1.637-5.798-4.911-5.798c-2.308,0-3.519,0.149-3.635,0.448c-0.101,0.216-0.151,2.132-0.151,5.748
			c0,0.514,0.018,1.273,0.054,2.277c0.036,1.004,0.054,1.763,0.054,2.277c0,0.332,1.298,0.498,3.894,0.498
			C530.18,167.242,531.745,165.425,531.745,161.792z"/>
		<path fill="#81C9C3" d="M550.249,168.013c0,4.529,0.014,8.004,0.043,10.426c0,0.382,0.022,1.037,0.065,1.966
			c0.043,0.846,0.065,1.501,0.065,1.966c0,0.348-0.18,0.556-0.541,0.622c-0.649,0.133-1.817,0.199-3.505,0.199
			c-1.731,0-2.834-0.066-3.31-0.199c-0.317-0.083-0.498-0.307-0.541-0.672c0-0.05,0-0.406,0-1.07c0-1.476,0.014-3.687,0.043-6.632
			c0.029-2.945,0.043-5.147,0.043-6.607c0-6.967,0.007-10.144,0.022-9.53c-0.043-3.666-0.224-6.826-0.541-9.481
			c-0.029-0.182-0.043-0.323-0.043-0.423c0-0.365,0.188-0.547,0.563-0.547h7.724c0.361,0,0.526,0.174,0.498,0.523l-0.022,0.448
			C550.437,156.168,550.249,162.505,550.249,168.013z"/>
		<path fill="#81C9C3" d="M575.484,170.551c0,1.277,0.065,3.177,0.195,5.698c0.13,2.522,0.195,4.413,0.195,5.673
			c0,0.664-0.252,1.02-0.757,1.07c-1.789,0.149-3.837,0.224-6.145,0.224c-0.274,0-0.458-0.477-0.552-1.431s-0.206-1.439-0.335-1.456
			c-0.115,0.066-0.267,0.207-0.454,0.423c-1.615,1.875-3.346,2.812-5.193,2.812c-2.813,0-5.142-1.277-6.988-3.832
			c-1.745-2.389-2.618-5.242-2.618-8.56c0-3.832,0.901-6.918,2.705-9.257c1.875-2.422,4.443-3.633,7.702-3.633
			c2.265,0,4.053,0.912,5.366,2.737c0.058,0.083,0.108,0.124,0.151,0.124c0.13,0,0.278-0.402,0.444-1.207
			c0.166-0.805,0.364-1.207,0.595-1.207c0.534,0,1.551,0.174,3.051,0.523c1.428,0.332,2.452,0.614,3.072,0.846
			c0.216,0.1,0.325,0.232,0.325,0.398c0,0.066-0.022,0.241-0.065,0.523C575.715,164.023,575.484,167.2,575.484,170.551z
			 M568.517,170.7c0-1.41-0.386-2.575-1.158-3.496s-1.778-1.381-3.018-1.381s-2.243,0.456-3.007,1.369s-1.147,2.082-1.147,3.509
			c0,1.344,0.404,2.497,1.212,3.459s1.789,1.443,2.943,1.443c1.226,0,2.229-0.46,3.007-1.381S568.517,172.127,568.517,170.7z"/>
		<path fill="#81C9C3" d="M600.861,182.271c0,0.448-0.202,0.705-0.606,0.771s-1.457,0.1-3.159,0.1c-1.817,0-2.943-0.05-3.375-0.149
			c-0.433-0.1-0.649-0.44-0.649-1.02c0-0.78,0.022-1.958,0.065-3.533c0.043-1.576,0.065-2.762,0.065-3.558
			c0-0.614-0.014-1.53-0.043-2.75c-0.029-1.219-0.043-2.136-0.043-2.75c0-2.273-0.858-3.409-2.575-3.409
			c-0.563,0-1.219,0.282-1.969,0.846c-0.808,0.63-1.212,1.252-1.212,1.866v13.437c0,0.547-0.224,0.854-0.671,0.921
			c-0.505,0.066-1.536,0.1-3.094,0.1c-1.688,0-2.784-0.05-3.289-0.149c-0.447-0.083-0.671-0.357-0.671-0.821
			c0-1.294,0.007-3.243,0.022-5.848s0.022-4.562,0.022-5.873c0-4.131-0.281-7.374-0.844-9.73c-0.029-0.149-0.043-0.274-0.043-0.373
			c0-0.265,0.108-0.448,0.325-0.547c0.909-0.116,2.12-0.299,3.635-0.547c2.293-0.514,3.584-0.771,3.873-0.771
			c0.159,0,0.281,0.56,0.368,1.68c0.086,1.12,0.209,1.68,0.368,1.68c-0.159,0,0.617-0.576,2.326-1.729
			c1.709-1.153,3.206-1.729,4.489-1.729c1.832,0,3.361,0.498,4.587,1.493c1.37,1.145,2.055,2.737,2.055,4.778v7.938
			c0,1.078,0.007,2.692,0.022,4.84C600.853,179.58,600.861,181.193,600.861,182.271z"/>
	</g>
	<g>
		<path fill="#F6F6F6" stroke="#009688" stroke-width="6" stroke-miterlimit="10" d="M293.639,78.05c0,0.129-3.129,8.8-9.387,26.01
			c-6.359,17.555-9.992,27.43-10.901,29.624c-0.303,0.774-0.488,1.205-0.555,1.291c-0.135,0.216-0.454,0.409-0.958,0.581
			c-0.841,0.258-3.23,0.388-7.167,0.388c-3.667,0-5.904-0.13-6.712-0.388c-0.673-0.215-1.077-0.388-1.211-0.517
			c-0.135-0.129-0.354-0.537-0.656-1.226c-0.202-0.474-1.161-3.507-2.876-9.101l-5.501-17.942l-5.602,18.136
			c-0.573,2.065-1.514,5.034-2.826,8.907c-0.337,0.731-0.573,1.173-0.707,1.322c-0.135,0.151-0.522,0.291-1.161,0.42
			c-1.145,0.258-3.348,0.388-6.611,0.388c-4.037,0-6.459-0.13-7.267-0.388c-0.572-0.172-1.043-0.796-1.413-1.872
			c-13.189-34.636-19.783-53.181-19.783-55.634c0-3.442,0.092-8.594,0.277-15.458c0.185-6.862,0.278-12.015,0.278-15.458
			c0-1.42,0.336-2.13,1.009-2.13c1.917,0,4.819,0.108,8.706,0.323c3.886,0.216,6.804,0.323,8.756,0.323
			c0.773,0,1.161,0.41,1.161,1.227c0,3.443-0.126,8.638-0.378,15.586c-0.252,6.949-0.378,12.145-0.378,15.586
			c0,1.291,1.228,5.4,3.684,12.327c2.221,6.196,3.835,10.391,4.845,12.585c0.504,1.12,0.84,1.678,1.009,1.678
			c0.269,0,0.958-2.065,2.069-6.196c3.162-11.574,4.777-18.416,4.845-20.524c0.134-3.958,0.151-8.992,0.051-15.103
			c-0.101-8.82-0.151-13.876-0.151-15.167c0-0.817,0.05-1.301,0.151-1.452c0.101-0.15,0.471-0.291,1.11-0.419
			c1.716-0.258,4.676-0.388,8.882-0.388c6.426,0,9.639,0.581,9.639,1.743c0,2.883-0.084,7.358-0.252,13.425
			c-0.169,5.895-0.236,10.37-0.202,13.424v3.292c0,2.194,1.732,9.187,5.198,20.976c1.177,4.088,1.884,6.131,2.12,6.131
			c0.168,0,0.505-0.559,1.009-1.678c0.941-2.108,2.456-6.282,4.542-12.521c2.321-6.798,3.482-10.843,3.482-12.134
			c0-3.485-0.126-8.702-0.379-15.651c-0.252-6.948-0.378-12.144-0.378-15.587c0-0.774,0.387-1.162,1.161-1.162
			c1.985,0,4.971-0.107,8.958-0.323c3.987-0.215,6.972-0.323,8.958-0.323c0.639,0,0.959,0.861,0.959,2.582
			c0,3.399,0.092,8.487,0.278,15.264C293.545,69.628,293.639,74.694,293.639,78.05z"/>
		<path fill="#F6F6F6" stroke="#009688" stroke-width="6" stroke-miterlimit="10" d="M348.403,88.764l-0.102,44.533
			c0,1.507-0.472,2.345-1.413,2.517c-1.077,0.172-3.532,0.259-7.368,0.259c-3.701,0-6.274-0.173-7.721-0.517
			c-1.11-0.258-1.666-1.183-1.666-2.775c0-3.7,0.051-9.271,0.151-16.716c0.102-7.443,0.152-13.015,0.152-16.716
			c0-5.034-2.003-7.551-6.006-7.551c-1.346,0-2.927,0.689-4.744,2.065c-1.985,1.507-2.978,3.077-2.978,4.711v15.942
			c0,2.065,0.033,5.174,0.101,9.326c0.067,4.152,0.101,7.261,0.101,9.326c0,1.592-0.522,2.474-1.564,2.646
			c-1.043,0.172-3.97,0.259-8.781,0.259c-2.759,0-4.744-0.173-5.955-0.517c-1.211-0.344-1.817-1.098-1.817-2.259
			c0-3.398,0.017-8.508,0.051-15.329c0.033-6.819,0.05-11.929,0.05-15.328c0-14.07-0.118-25.708-0.353-34.917
			c-0.101-3.227-0.186-6.454-0.252-9.681c-0.169-3.744-0.472-6.948-0.908-9.617c-0.101-0.559-0.152-0.968-0.152-1.226
			c0-0.646,0.252-1.075,0.757-1.291c1.042-0.387,2.574-0.623,4.592-0.71c2.691-0.129,4.256-0.236,4.693-0.323l9.134-1.355
			c0.538,0,0.808,0.452,0.808,1.355c0,1.377-0.068,3.249-0.202,5.615c-0.135,2.754-0.202,4.625-0.202,5.615
			c-0.202,9.725-0.303,17.405-0.303,23.041c0,0.861,0.168,1.291,0.505,1.291c0.067,0,0.925-0.752,2.574-2.259
			c1.951-1.764,3.818-3.163,5.602-4.195c2.657-1.506,5.231-2.259,7.722-2.259c4.306,0,7.905,1.442,10.8,4.324
			C346.838,79.147,348.403,83.386,348.403,88.764z"/>
		<path fill="#F6F6F6" stroke="#009688" stroke-width="6" stroke-miterlimit="10" d="M405.952,103.285
			c0,3.314,0.151,8.24,0.455,14.78c0.303,6.541,0.454,11.446,0.454,14.715c0,1.722-0.59,2.646-1.767,2.775
			c-4.172,0.388-8.95,0.581-14.332,0.581c-0.64,0-1.069-1.236-1.287-3.711c-0.22-2.474-0.479-3.732-0.782-3.776
			c-0.27,0.173-0.623,0.539-1.06,1.098c-3.769,4.862-7.807,7.293-12.112,7.293c-6.561,0-11.994-3.313-16.301-9.938
			c-4.071-6.197-6.106-13.597-6.106-22.203c0-9.939,2.103-17.942,6.309-24.009c4.373-6.282,10.362-9.423,17.966-9.423
			c5.281,0,9.454,2.367,12.516,7.1c0.134,0.216,0.252,0.323,0.354,0.323c0.303,0,0.647-1.043,1.034-3.13
			c0.387-2.086,0.85-3.13,1.388-3.13c1.244,0,3.616,0.452,7.116,1.355c3.33,0.861,5.719,1.592,7.166,2.194
			c0.505,0.258,0.757,0.603,0.757,1.033c0,0.172-0.051,0.624-0.151,1.355C406.49,86.355,405.952,94.595,405.952,103.285z
			 M389.702,103.673c0-3.656-0.9-6.68-2.699-9.068c-1.801-2.388-4.147-3.582-7.04-3.582c-2.895,0-5.232,1.184-7.016,3.55
			c-1.783,2.367-2.675,5.4-2.675,9.1c0,3.485,0.942,6.477,2.826,8.971c1.884,2.496,4.172,3.744,6.864,3.744
			c2.858,0,5.197-1.194,7.015-3.582C388.793,110.417,389.702,107.374,389.702,103.673z"/>
		<path fill="#F6F6F6" stroke="#009688" stroke-width="6" stroke-miterlimit="10" d="M448.165,116.645
			c0,1.291-0.126,3.25-0.379,5.874c-0.252,2.625-0.378,4.55-0.378,5.776c0,1.227-0.102,2.012-0.303,2.355
			c-0.202,0.345-0.758,0.839-1.666,1.484c-4.34,3.056-9.151,4.583-14.434,4.583c-9.723,0-14.584-4.754-14.584-14.264
			c0-2.84,0.083-7.11,0.252-12.812c0.168-5.701,0.252-9.972,0.252-12.812c0-1.893-0.857-2.839-2.573-2.839c-0.135,0-0.354,0-0.656,0
			c-0.303,0.043-0.521,0.064-0.656,0.064c-1.278,0-1.917-0.581-1.917-1.743c0-0.688,0.041-1.743,0.126-3.163
			c0.083-1.42,0.126-2.474,0.126-3.163c0-0.903-0.043-2.28-0.126-4.13c-0.085-1.85-0.126-3.227-0.126-4.131
			c0-0.86,1.076-1.333,3.229-1.42c1.211-0.042,1.867-0.473,1.968-1.291c0.202-1.635,0.27-4.216,0.202-7.745
			c-0.135-5.55-0.202-8.196-0.202-7.938c0-4.991,0.37-7.487,1.11-7.487c0.908,0,2.203,0.258,3.886,0.775
			c1.918,0.56,3.247,0.882,3.987,0.968c1.716,0.302,4.306,0.71,7.771,1.227c0.841,0.086,1.262,0.452,1.262,1.097
			c0,1.721-0.109,4.324-0.328,7.809c-0.219,3.485-0.328,6.11-0.328,7.874c0,2.109,0.487,3.163,1.464,3.163
			c1.178,0,2.96-0.064,5.35-0.193c2.389-0.129,4.188-0.194,5.399-0.194c0.74,0,1.11,0.323,1.11,0.968
			c0,0.99-0.084,2.475-0.252,4.453c-0.169,1.979-0.253,3.464-0.253,4.453c0,1.033,0.017,2.54,0.051,4.518
			c0.033,1.979,0.051,3.485,0.051,4.518c0,0.903-0.488,1.355-1.464,1.355c-0.673,0-1.8-0.032-3.381-0.097
			c-1.582-0.064-2.709-0.097-3.382-0.097h-3.784c-0.505,0-0.758,0.947-0.758,2.84c0,1.033,0,2.56,0,4.582
			c0.033,2.065,0.051,3.593,0.051,4.583c0,3.614,0.319,6.11,0.959,7.487c0.908,1.851,2.691,2.775,5.35,2.775
			c0.841,0,2.044-0.247,3.608-0.742c1.564-0.494,2.666-0.742,3.306-0.742C447.812,115.226,448.165,115.7,448.165,116.645z"/>
		<path fill="#F6F6F6" stroke="#009688" stroke-width="6" stroke-miterlimit="10" d="M500.145,87.86
			c0,5.078,0.102,12.715,0.303,22.912c0.202,10.197,0.304,17.835,0.304,22.912c0,0.861-0.152,1.399-0.455,1.614
			c-0.067,0.043-0.504,0.129-1.312,0.258c-2.188,0.344-5.114,0.517-8.781,0.517c-4.913,0-8.042-0.173-9.387-0.517
			c-0.977-0.258-1.464-0.925-1.464-2.001c0,0.689,0.151-3.098,0.454-11.359c0.605-17.426,0.909-28.871,0.909-34.336
			c0-4.604-0.119-11.509-0.354-20.717c-0.236-9.207-0.354-16.113-0.354-20.718c0-0.946,0.387-1.42,1.161-1.42
			c1.042,0,2.615,0.065,4.718,0.194s3.676,0.193,4.719,0.193s2.582-0.064,4.618-0.193c2.035-0.129,3.574-0.194,4.617-0.194
			c0.976,0,1.464,0.474,1.464,1.42c0,4.605-0.194,11.511-0.58,20.718C500.338,76.351,500.145,83.257,500.145,87.86z"/>
		<path fill="#F6F6F6" stroke="#009688" stroke-width="6" stroke-miterlimit="10" d="M602.137,89.797
			c0,12.65-3.179,23.622-9.538,32.916c-5.619,8.305-13.508,12.672-23.668,13.102c-1.952,0.086-7.318,0.13-16.099,0.13
			c-1.649,0-4.131-0.065-7.444-0.194c-3.314-0.129-5.796-0.193-7.443-0.193c-0.977,0-1.464-0.494-1.464-1.484
			c0-4.732,0.143-11.843,0.429-21.331c0.286-9.488,0.43-16.597,0.43-21.331c0-4.947-0.144-12.359-0.43-22.234
			c-0.286-9.875-0.429-17.265-0.429-22.17c0-0.904,0.487-1.441,1.464-1.614c2.388-0.344,6.308-0.516,11.759-0.516
			c10.361,0,17.073,0.194,20.136,0.581c7.974,1.033,14.214,3.614,18.723,7.745c4.239,3.873,7.587,9.294,10.043,16.264
			C600.959,76.05,602.137,82.826,602.137,89.797z M582.809,89.797c0-7.271-1.699-13.208-5.097-17.813
			c-3.433-4.776-7.975-7.164-13.626-7.164c-5.182,0-7.772,0.883-7.772,2.646c0,2.539-0.033,6.357-0.101,11.456
			c-0.068,5.099-0.101,8.917-0.101,11.456c0,2.496,0.032,6.25,0.101,11.263c0.067,5.013,0.101,8.789,0.101,11.327
			c0,1.851,2.691,2.775,8.075,2.775c5.82,0,10.396-2.474,13.727-7.422C581.245,103.631,582.809,97.456,582.809,89.797z"/>
		<path fill="#F6F6F6" stroke="#009688" stroke-width="6" stroke-miterlimit="10" d="M656.79,103.802
			c0,9.81-2.347,17.771-7.04,23.88c-4.693,6.11-10.858,9.165-18.495,9.165c-7.402,0-13.492-3.012-18.27-9.036
			c-4.777-6.023-7.166-13.768-7.166-23.234c0-9.981,2.288-18.082,6.863-24.3c4.575-6.217,10.766-9.326,18.572-9.326
			c7.603,0,13.76,3.045,18.47,9.133C654.435,86.172,656.79,94.078,656.79,103.802z M640.238,103.802c0-3.398-0.825-6.4-2.473-9.003
			c-1.648-2.603-3.785-3.905-6.409-3.905c-2.658,0-4.845,1.334-6.561,4.001c-1.615,2.496-2.423,5.465-2.423,8.907
			c0,3.485,0.808,6.476,2.423,8.971c1.716,2.668,3.902,4.001,6.561,4.001c2.624,0,4.794-1.333,6.51-4.001
			C639.447,110.278,640.238,107.287,640.238,103.802z"/>
	</g>
</g>
<g id="Capa_3">
	<g id="Capa_4">
	</g>
</g>
</svg>
